<mxfile host="app.diagrams.net" modified="2023-01-23T11:51:58.651Z" agent="5.0 (Windows NT 10.0; Win64; x64) AppleWebKit/537.36 (KHTML, like Gecko) Chrome/106.0.0.0 YaBrowser/22.11.5.715 Yowser/2.5 Safari/537.36" etag="HU-LG8C9Dc2fPVxXsf7f" version="20.8.10" type="github">
  <diagram name="Страница 1" id="6EAmZXOaX1JrKrblsV_B">
    <mxGraphModel dx="1002" dy="553" grid="1" gridSize="10" guides="1" tooltips="1" connect="1" arrows="1" fold="1" page="1" pageScale="1" pageWidth="827" pageHeight="1169" math="0" shadow="0">
      <root>
        <mxCell id="0" />
        <mxCell id="1" parent="0" />
        <mxCell id="6-NJyNqDni9yNwFOhuFU-6" value="стул" style="strokeWidth=2;html=1;shape=mxgraph.flowchart.start_1;whiteSpace=wrap;fillColor=#d5e8d4;strokeColor=#43B32D;" vertex="1" parent="1">
          <mxGeometry x="80" y="405" width="60" height="40" as="geometry" />
        </mxCell>
        <mxCell id="6-NJyNqDni9yNwFOhuFU-18" style="edgeStyle=orthogonalEdgeStyle;rounded=0;orthogonalLoop=1;jettySize=auto;html=1;exitX=1;exitY=0.5;exitDx=0;exitDy=0;entryX=0;entryY=0.5;entryDx=0;entryDy=0;fillColor=#d5e8d4;strokeColor=#43B32D;" edge="1" parent="1" source="6-NJyNqDni9yNwFOhuFU-7" target="6-NJyNqDni9yNwFOhuFU-14">
          <mxGeometry relative="1" as="geometry" />
        </mxCell>
        <mxCell id="6-NJyNqDni9yNwFOhuFU-19" style="edgeStyle=orthogonalEdgeStyle;rounded=0;orthogonalLoop=1;jettySize=auto;html=1;entryX=0;entryY=0.5;entryDx=0;entryDy=0;exitX=1;exitY=0.5;exitDx=0;exitDy=0;fillColor=#d5e8d4;strokeColor=#43B32D;" edge="1" parent="1" source="6-NJyNqDni9yNwFOhuFU-7" target="6-NJyNqDni9yNwFOhuFU-13">
          <mxGeometry relative="1" as="geometry">
            <Array as="points">
              <mxPoint x="335" y="350" />
              <mxPoint x="335" y="260" />
            </Array>
          </mxGeometry>
        </mxCell>
        <mxCell id="6-NJyNqDni9yNwFOhuFU-20" style="edgeStyle=orthogonalEdgeStyle;rounded=0;orthogonalLoop=1;jettySize=auto;html=1;exitX=1;exitY=0.5;exitDx=0;exitDy=0;entryX=0;entryY=0.5;entryDx=0;entryDy=0;fillColor=#d5e8d4;strokeColor=#43B32D;" edge="1" parent="1" source="6-NJyNqDni9yNwFOhuFU-7" target="6-NJyNqDni9yNwFOhuFU-12">
          <mxGeometry relative="1" as="geometry" />
        </mxCell>
        <mxCell id="6-NJyNqDni9yNwFOhuFU-7" value="по стоставу" style="rounded=1;whiteSpace=wrap;html=1;fillColor=#d5e8d4;strokeColor=#43B32D;" vertex="1" parent="1">
          <mxGeometry x="200" y="330" width="90" height="40" as="geometry" />
        </mxCell>
        <mxCell id="6-NJyNqDni9yNwFOhuFU-21" style="edgeStyle=orthogonalEdgeStyle;rounded=0;orthogonalLoop=1;jettySize=auto;html=1;exitX=1;exitY=0.5;exitDx=0;exitDy=0;entryX=0;entryY=0.5;entryDx=0;entryDy=0;fillColor=#d5e8d4;strokeColor=#43B32D;" edge="1" parent="1" source="6-NJyNqDni9yNwFOhuFU-8" target="6-NJyNqDni9yNwFOhuFU-16">
          <mxGeometry relative="1" as="geometry" />
        </mxCell>
        <mxCell id="6-NJyNqDni9yNwFOhuFU-22" style="edgeStyle=orthogonalEdgeStyle;rounded=0;orthogonalLoop=1;jettySize=auto;html=1;exitX=1;exitY=0.5;exitDx=0;exitDy=0;entryX=0;entryY=0.5;entryDx=0;entryDy=0;fillColor=#d5e8d4;strokeColor=#43B32D;" edge="1" parent="1" source="6-NJyNqDni9yNwFOhuFU-8" target="6-NJyNqDni9yNwFOhuFU-15">
          <mxGeometry relative="1" as="geometry" />
        </mxCell>
        <mxCell id="6-NJyNqDni9yNwFOhuFU-23" style="edgeStyle=orthogonalEdgeStyle;rounded=0;orthogonalLoop=1;jettySize=auto;html=1;exitX=1;exitY=0.5;exitDx=0;exitDy=0;entryX=0;entryY=0.5;entryDx=0;entryDy=0;fillColor=#d5e8d4;strokeColor=#43B32D;" edge="1" parent="1" source="6-NJyNqDni9yNwFOhuFU-8" target="6-NJyNqDni9yNwFOhuFU-17">
          <mxGeometry relative="1" as="geometry" />
        </mxCell>
        <mxCell id="6-NJyNqDni9yNwFOhuFU-8" value="по функциональности" style="rounded=1;whiteSpace=wrap;html=1;fillColor=#d5e8d4;strokeColor=#43B32D;" vertex="1" parent="1">
          <mxGeometry x="180" y="480" width="130" height="40" as="geometry" />
        </mxCell>
        <mxCell id="6-NJyNqDni9yNwFOhuFU-10" value="" style="edgeStyle=elbowEdgeStyle;elbow=vertical;endArrow=classic;html=1;curved=0;rounded=0;endSize=8;startSize=8;entryX=0;entryY=0.5;entryDx=0;entryDy=0;exitX=0.5;exitY=1;exitDx=0;exitDy=0;exitPerimeter=0;fillColor=#d5e8d4;strokeColor=#43B32D;" edge="1" parent="1" source="6-NJyNqDni9yNwFOhuFU-6" target="6-NJyNqDni9yNwFOhuFU-8">
          <mxGeometry width="50" height="50" relative="1" as="geometry">
            <mxPoint x="110" y="455" as="sourcePoint" />
            <mxPoint x="140" y="475" as="targetPoint" />
            <Array as="points">
              <mxPoint x="150" y="500" />
            </Array>
          </mxGeometry>
        </mxCell>
        <mxCell id="6-NJyNqDni9yNwFOhuFU-11" value="" style="edgeStyle=elbowEdgeStyle;elbow=vertical;endArrow=classic;html=1;curved=0;rounded=0;endSize=8;startSize=8;entryX=0;entryY=0.5;entryDx=0;entryDy=0;exitX=0.5;exitY=0;exitDx=0;exitDy=0;exitPerimeter=0;fillColor=#d5e8d4;strokeColor=#43B32D;" edge="1" parent="1" source="6-NJyNqDni9yNwFOhuFU-6" target="6-NJyNqDni9yNwFOhuFU-7">
          <mxGeometry width="50" height="50" relative="1" as="geometry">
            <mxPoint x="110" y="395" as="sourcePoint" />
            <mxPoint x="190" y="445" as="targetPoint" />
            <Array as="points">
              <mxPoint x="160" y="350" />
            </Array>
          </mxGeometry>
        </mxCell>
        <mxCell id="6-NJyNqDni9yNwFOhuFU-12" value="Ножки" style="rounded=1;whiteSpace=wrap;html=1;fillColor=#d5e8d4;strokeColor=#43B32D;" vertex="1" parent="1">
          <mxGeometry x="379" y="355" width="90" height="40" as="geometry" />
        </mxCell>
        <mxCell id="6-NJyNqDni9yNwFOhuFU-45" style="edgeStyle=orthogonalEdgeStyle;rounded=0;orthogonalLoop=1;jettySize=auto;html=1;exitX=1;exitY=0.5;exitDx=0;exitDy=0;entryX=0;entryY=0.633;entryDx=0;entryDy=0;entryPerimeter=0;strokeColor=#43B32D;" edge="1" parent="1" source="6-NJyNqDni9yNwFOhuFU-13" target="6-NJyNqDni9yNwFOhuFU-27">
          <mxGeometry relative="1" as="geometry" />
        </mxCell>
        <mxCell id="6-NJyNqDni9yNwFOhuFU-47" style="edgeStyle=orthogonalEdgeStyle;rounded=0;orthogonalLoop=1;jettySize=auto;html=1;exitX=1;exitY=0.5;exitDx=0;exitDy=0;entryX=1.023;entryY=0.487;entryDx=0;entryDy=0;entryPerimeter=0;strokeColor=#43B32D;" edge="1" parent="1" source="6-NJyNqDni9yNwFOhuFU-13" target="6-NJyNqDni9yNwFOhuFU-28">
          <mxGeometry relative="1" as="geometry" />
        </mxCell>
        <mxCell id="6-NJyNqDni9yNwFOhuFU-48" style="edgeStyle=orthogonalEdgeStyle;rounded=0;orthogonalLoop=1;jettySize=auto;html=1;exitX=1;exitY=0.5;exitDx=0;exitDy=0;entryX=-0.008;entryY=0.433;entryDx=0;entryDy=0;entryPerimeter=0;strokeColor=#43B32D;" edge="1" parent="1" source="6-NJyNqDni9yNwFOhuFU-13" target="6-NJyNqDni9yNwFOhuFU-29">
          <mxGeometry relative="1" as="geometry" />
        </mxCell>
        <mxCell id="6-NJyNqDni9yNwFOhuFU-49" style="edgeStyle=orthogonalEdgeStyle;rounded=0;orthogonalLoop=1;jettySize=auto;html=1;exitX=1;exitY=0.5;exitDx=0;exitDy=0;strokeColor=#43B32D;" edge="1" parent="1" source="6-NJyNqDni9yNwFOhuFU-13" target="6-NJyNqDni9yNwFOhuFU-30">
          <mxGeometry relative="1" as="geometry" />
        </mxCell>
        <mxCell id="6-NJyNqDni9yNwFOhuFU-50" style="edgeStyle=orthogonalEdgeStyle;rounded=0;orthogonalLoop=1;jettySize=auto;html=1;exitX=1;exitY=0.5;exitDx=0;exitDy=0;entryX=0.01;entryY=0.473;entryDx=0;entryDy=0;entryPerimeter=0;strokeColor=#43B32D;" edge="1" parent="1" source="6-NJyNqDni9yNwFOhuFU-13" target="6-NJyNqDni9yNwFOhuFU-32">
          <mxGeometry relative="1" as="geometry" />
        </mxCell>
        <mxCell id="6-NJyNqDni9yNwFOhuFU-13" value="Сидушка" style="rounded=1;whiteSpace=wrap;html=1;fillColor=#d5e8d4;strokeColor=#43B32D;" vertex="1" parent="1">
          <mxGeometry x="379" y="240" width="90" height="40" as="geometry" />
        </mxCell>
        <mxCell id="6-NJyNqDni9yNwFOhuFU-37" value="" style="edgeStyle=orthogonalEdgeStyle;rounded=0;orthogonalLoop=1;jettySize=auto;html=1;strokeColor=#43B32D;" edge="1" parent="1" source="6-NJyNqDni9yNwFOhuFU-14" target="6-NJyNqDni9yNwFOhuFU-26">
          <mxGeometry relative="1" as="geometry" />
        </mxCell>
        <mxCell id="6-NJyNqDni9yNwFOhuFU-38" style="edgeStyle=orthogonalEdgeStyle;rounded=0;orthogonalLoop=1;jettySize=auto;html=1;strokeColor=#43B32D;" edge="1" parent="1" source="6-NJyNqDni9yNwFOhuFU-14" target="6-NJyNqDni9yNwFOhuFU-25">
          <mxGeometry relative="1" as="geometry" />
        </mxCell>
        <mxCell id="6-NJyNqDni9yNwFOhuFU-39" style="edgeStyle=orthogonalEdgeStyle;rounded=0;orthogonalLoop=1;jettySize=auto;html=1;exitX=1;exitY=0.5;exitDx=0;exitDy=0;strokeColor=#43B32D;" edge="1" parent="1" source="6-NJyNqDni9yNwFOhuFU-14" target="6-NJyNqDni9yNwFOhuFU-24">
          <mxGeometry relative="1" as="geometry" />
        </mxCell>
        <mxCell id="6-NJyNqDni9yNwFOhuFU-14" value="Спинка" style="rounded=1;whiteSpace=wrap;html=1;fillColor=#d5e8d4;strokeColor=#43B32D;" vertex="1" parent="1">
          <mxGeometry x="379" y="102.5" width="90" height="40" as="geometry" />
        </mxCell>
        <mxCell id="6-NJyNqDni9yNwFOhuFU-15" value="Стоять" style="rounded=1;whiteSpace=wrap;html=1;fillColor=#d5e8d4;strokeColor=#43B32D;" vertex="1" parent="1">
          <mxGeometry x="379" y="570" width="90" height="40" as="geometry" />
        </mxCell>
        <mxCell id="6-NJyNqDni9yNwFOhuFU-16" value="Сидеть" style="rounded=1;whiteSpace=wrap;html=1;fillColor=#d5e8d4;strokeColor=#43B32D;" vertex="1" parent="1">
          <mxGeometry x="379" y="480" width="90" height="40" as="geometry" />
        </mxCell>
        <mxCell id="6-NJyNqDni9yNwFOhuFU-17" value="Переносить" style="rounded=1;whiteSpace=wrap;html=1;fillColor=#d5e8d4;strokeColor=#43B32D;" vertex="1" parent="1">
          <mxGeometry x="379" y="660" width="90" height="40" as="geometry" />
        </mxCell>
        <mxCell id="6-NJyNqDni9yNwFOhuFU-24" value="Угол наклона спини" style="text;html=1;align=center;verticalAlign=middle;resizable=0;points=[];autosize=1;strokeColor=none;fillColor=none;" vertex="1" parent="1">
          <mxGeometry x="510" y="80" width="130" height="30" as="geometry" />
        </mxCell>
        <mxCell id="6-NJyNqDni9yNwFOhuFU-25" value="Интенсивность давления на спинку" style="text;html=1;align=center;verticalAlign=middle;resizable=0;points=[];autosize=1;strokeColor=none;fillColor=none;" vertex="1" parent="1">
          <mxGeometry x="510" y="107.5" width="220" height="30" as="geometry" />
        </mxCell>
        <mxCell id="6-NJyNqDni9yNwFOhuFU-26" value="Облокотиться на спинку" style="text;html=1;align=center;verticalAlign=middle;resizable=0;points=[];autosize=1;strokeColor=none;fillColor=none;" vertex="1" parent="1">
          <mxGeometry x="510" y="142.5" width="160" height="30" as="geometry" />
        </mxCell>
        <mxCell id="6-NJyNqDni9yNwFOhuFU-28" value="Мягкость" style="text;align=center;verticalAlign=middle;resizable=0;points=[];autosize=1;strokeColor=none;fillColor=none;labelPosition=center;verticalLabelPosition=middle;html=1;flipH=1;flipV=1;container=0;" vertex="1" parent="1">
          <mxGeometry x="510" y="220" width="70" height="30" as="geometry" />
        </mxCell>
        <mxCell id="6-NJyNqDni9yNwFOhuFU-27" value="Материал" style="text;html=1;align=center;verticalAlign=middle;resizable=0;points=[];autosize=1;strokeColor=none;fillColor=none;labelPosition=center;verticalLabelPosition=middle;" vertex="1" parent="1">
          <mxGeometry x="510" y="190" width="80" height="30" as="geometry" />
        </mxCell>
        <mxCell id="6-NJyNqDni9yNwFOhuFU-29" value="Эластичность" style="text;html=1;align=center;verticalAlign=middle;resizable=0;points=[];autosize=1;strokeColor=none;fillColor=none;labelPosition=center;verticalLabelPosition=middle;" vertex="1" parent="1">
          <mxGeometry x="510" y="240" width="100" height="30" as="geometry" />
        </mxCell>
        <mxCell id="6-NJyNqDni9yNwFOhuFU-30" value="Прочность" style="text;html=1;align=center;verticalAlign=middle;resizable=0;points=[];autosize=1;strokeColor=none;fillColor=none;labelPosition=center;verticalLabelPosition=middle;" vertex="1" parent="1">
          <mxGeometry x="510" y="260" width="80" height="30" as="geometry" />
        </mxCell>
        <mxCell id="6-NJyNqDni9yNwFOhuFU-32" value="Удобство" style="text;html=1;align=center;verticalAlign=middle;resizable=0;points=[];autosize=1;strokeColor=none;fillColor=none;labelPosition=center;verticalLabelPosition=middle;" vertex="1" parent="1">
          <mxGeometry x="510" y="290" width="80" height="30" as="geometry" />
        </mxCell>
      </root>
    </mxGraphModel>
  </diagram>
</mxfile>
